<svg width="200" height="300" xmlns="http://www.w3.org/2000/svg">
  <!-- Background -->
  <defs>
    <linearGradient id="posterGradient" x1="0%" y1="0%" x2="0%" y2="100%">
      <stop offset="0%" stop-color="#1a1a1a" />
      <stop offset="100%" stop-color="#000000" />
    </linearGradient>
  </defs>
  <rect width="200" height="300" fill="url(#posterGradient)" />
  
  <!-- Horror Elements -->
  <path d="M100,80 L120,120 L80,120 Z" fill="#6a040f" />
  <circle cx="100" cy="70" r="20" fill="#370617" />
  <path d="M85,65 L90,75 L80,75 Z" fill="black" />
  <path d="M115,65 L110,75 L120,75 Z" fill="black" />
  <path d="M90,80 L110,80 L100,90 Z" fill="black" />
  
  <!-- Spooky Tree -->
  <path d="M40,150 L40,200 L35,200 L45,220 L55,200 L50,200 L50,150 Z" fill="#333" />
  <path d="M40,150 C20,130 10,100 40,90 C70,100 60,130 40,150 Z" fill="#222" />
  
  <!-- Moon -->
  <circle cx="150" cy="60" r="25" fill="#d3d3d3" opacity="0.7" />
  <circle cx="140" cy="50" r="8" fill="#aaa" opacity="0.6" />
  <circle cx="160" cy="70" r="5" fill="#aaa" opacity="0.6" />
  
  <!-- Title Area -->
  <rect x="10" y="220" width="180" height="70" fill="rgba(0,0,0,0.7)" />
  <text x="100" y="245" font-family="Arial" font-size="16" fill="#ff0000" text-anchor="middle" font-weight="bold">Night Terror</text>
  <text x="100" y="265" font-family="Arial" font-size="10" fill="#aaa" text-anchor="middle">2023 | Horror</text>
  <text x="100" y="280" font-family="Arial" font-size="10" fill="#ff0000" text-anchor="middle">★★★★☆</text>
</svg>