<svg width="200" height="300" xmlns="http://www.w3.org/2000/svg">
  <!-- Background -->
  <defs>
    <linearGradient id="posterGradient" x1="0%" y1="0%" x2="0%" y2="100%">
      <stop offset="0%" stop-color="#023e8a" />
      <stop offset="100%" stop-color="#0077b6" />
    </linearGradient>
  </defs>
  <rect width="200" height="300" fill="url(#posterGradient)" />
  
  <!-- Ocean Elements -->
  <path d="M0,200 Q50,180 100,200 Q150,220 200,200 L200,300 L0,300 Z" fill="#0096c7" opacity="0.8" />
  <path d="M0,220 Q50,200 100,220 Q150,240 200,220 L200,300 L0,300 Z" fill="#00b4d8" opacity="0.6" />
  <path d="M0,240 Q50,220 100,240 Q150,260 200,240 L200,300 L0,300 Z" fill="#48cae4" opacity="0.4" />
  
  <!-- Ship -->
  <path d="M120,150 L150,180 L90,180 Z" fill="#6c757d" />
  <rect x="115" y="130" width="10" height="20" fill="#495057" />
  <rect x="100" y="180" width="40" height="10" fill="#343a40" />
  
  <!-- Shark Fin -->
  <path d="M40,160 L60,140 L80,160 Z" fill="#343a40" />
  
  <!-- Title Area -->
  <rect x="10" y="220" width="180" height="70" fill="rgba(0,0,0,0.5)" />
  <text x="100" y="245" font-family="Arial" font-size="16" fill="white" text-anchor="middle" font-weight="bold">Ocean's Revenge</text>
  <text x="100" y="265" font-family="Arial" font-size="10" fill="#aaa" text-anchor="middle">2023 | Action</text>
  <text x="100" y="280" font-family="Arial" font-size="10" fill="#48cae4" text-anchor="middle">★★★★☆</text>
</svg>